<svg width="257" height="40" viewBox="0 0 257 40" fill="none" xmlns="http://www.w3.org/2000/svg">
<path d="M0 28.2256C0 14.8004 12.2251 4.76067 25.5968 6.02665C29.5 6.39619 33.363 6.64385 36.7857 6.65856C40.6416 6.67513 45.0368 6.40077 49.4402 5.98379C62.7979 4.71886 75 14.7722 75 28.1833V32.3606C75 36.3036 71.4449 39.5 67.5 39.5C61.4192 39.5 56.6411 39.5 51.0714 39.5C43.4582 39.5 43.5714 32.3606 36.7857 32.3606C30 32.3606 30.3571 39.5 23.5714 39.5C19.6936 39.5 12.4589 39.5 7.04853 39.5C3.10364 39.5 0 36.3036 0 32.3606V28.2256Z" fill="black"/>
<path d="M6.43301 4.43134C5.64158 3.30051 5.91716 1.74251 7.04853 0.951465C8.17991 0.160416 9.73865 0.435866 10.5301 1.5667L17.4904 11.512C18.2818 12.6428 18.0062 14.2008 16.8749 14.9918C15.7435 15.7829 14.1847 15.5074 13.3933 14.3766L6.43301 4.43134Z" fill="black"/>
<path d="M71.776 4.43134C72.5675 3.30051 72.2919 1.74251 71.1605 0.951465C70.0291 0.160416 68.4704 0.435866 67.679 1.5667L60.7187 11.512C59.9272 12.6428 60.2028 14.2008 61.3342 14.9918C62.4656 15.7829 64.0243 15.5074 64.8157 14.3766L71.776 4.43134Z" fill="black"/>
<path d="M90.296 29.668C89.176 29.668 88.168 29.476 87.272 29.092C86.376 28.692 85.672 28.132 85.16 27.412C84.648 26.692 84.392 25.852 84.392 24.892H87.32C87.384 25.612 87.664 26.204 88.16 26.668C88.672 27.132 89.384 27.364 90.296 27.364C91.24 27.364 91.976 27.14 92.504 26.692C93.032 26.228 93.296 25.636 93.296 24.916C93.296 24.356 93.128 23.9 92.792 23.548C92.472 23.196 92.064 22.924 91.568 22.732C91.088 22.54 90.416 22.332 89.552 22.108C88.464 21.82 87.576 21.532 86.888 21.244C86.216 20.94 85.64 20.476 85.16 19.852C84.68 19.228 84.44 18.396 84.44 17.356C84.44 16.396 84.68 15.556 85.16 14.836C85.64 14.116 86.312 13.564 87.176 13.18C88.04 12.796 89.04 12.604 90.176 12.604C91.792 12.604 93.112 13.012 94.136 13.828C95.176 14.628 95.752 15.732 95.864 17.14H92.84C92.792 16.532 92.504 16.012 91.976 15.58C91.448 15.148 90.752 14.932 89.888 14.932C89.104 14.932 88.464 15.132 87.968 15.532C87.472 15.932 87.224 16.508 87.224 17.26C87.224 17.772 87.376 18.196 87.68 18.532C88 18.852 88.4 19.108 88.88 19.3C89.36 19.492 90.016 19.7 90.848 19.924C91.952 20.228 92.848 20.532 93.536 20.836C94.24 21.14 94.832 21.612 95.312 22.252C95.808 22.876 96.056 23.716 96.056 24.772C96.056 25.62 95.824 26.42 95.36 27.172C94.912 27.924 94.248 28.532 93.368 28.996C92.504 29.444 91.48 29.668 90.296 29.668ZM104.516 22.9L110.612 29.5H106.916L102.02 23.812V29.5H99.2844V11.74H102.02V22.06L106.82 16.276H110.612L104.516 22.9ZM124.477 16.276L116.365 35.716H113.533L116.221 29.284L111.013 16.276H114.061L117.781 26.356L121.645 16.276H124.477ZM140.918 12.82L134.654 29.5H131.486L125.198 12.82H128.126L133.07 26.692L138.038 12.82H140.918ZM144.598 14.524C144.102 14.524 143.686 14.356 143.35 14.02C143.014 13.684 142.846 13.268 142.846 12.772C142.846 12.276 143.014 11.86 143.35 11.524C143.686 11.188 144.102 11.02 144.598 11.02C145.078 11.02 145.486 11.188 145.822 11.524C146.158 11.86 146.326 12.276 146.326 12.772C146.326 13.268 146.158 13.684 145.822 14.02C145.486 14.356 145.078 14.524 144.598 14.524ZM145.942 16.276V29.5H143.206V16.276H145.942ZM154.334 29.716C153.294 29.716 152.358 29.532 151.526 29.164C150.71 28.78 150.062 28.268 149.582 27.628C149.102 26.972 148.846 26.244 148.814 25.444H151.646C151.694 26.004 151.958 26.476 152.438 26.86C152.934 27.228 153.55 27.412 154.286 27.412C155.054 27.412 155.646 27.268 156.062 26.98C156.494 26.676 156.71 26.292 156.71 25.828C156.71 25.332 156.47 24.964 155.99 24.724C155.526 24.484 154.782 24.22 153.758 23.932C152.766 23.66 151.958 23.396 151.334 23.14C150.71 22.884 150.166 22.492 149.702 21.964C149.254 21.436 149.03 20.74 149.03 19.876C149.03 19.172 149.238 18.532 149.654 17.956C150.07 17.364 150.662 16.9 151.43 16.564C152.214 16.228 153.11 16.06 154.118 16.06C155.622 16.06 156.83 16.444 157.742 17.212C158.67 17.964 159.166 18.996 159.23 20.308H156.494C156.446 19.716 156.206 19.244 155.774 18.892C155.342 18.54 154.758 18.364 154.022 18.364C153.302 18.364 152.75 18.5 152.366 18.772C151.982 19.044 151.79 19.404 151.79 19.852C151.79 20.204 151.918 20.5 152.174 20.74C152.43 20.98 152.742 21.172 153.11 21.316C153.478 21.444 154.022 21.612 154.742 21.82C155.702 22.076 156.486 22.34 157.094 22.612C157.718 22.868 158.254 23.252 158.702 23.764C159.15 24.276 159.382 24.956 159.398 25.804C159.398 26.556 159.19 27.228 158.774 27.82C158.358 28.412 157.766 28.876 156.998 29.212C156.246 29.548 155.358 29.716 154.334 29.716ZM163.747 14.524C163.251 14.524 162.835 14.356 162.499 14.02C162.163 13.684 161.995 13.268 161.995 12.772C161.995 12.276 162.163 11.86 162.499 11.524C162.835 11.188 163.251 11.02 163.747 11.02C164.227 11.02 164.635 11.188 164.971 11.524C165.307 11.86 165.475 12.276 165.475 12.772C165.475 13.268 165.307 13.684 164.971 14.02C164.635 14.356 164.227 14.524 163.747 14.524ZM165.091 16.276V29.5H162.355V16.276H165.091ZM174.419 29.716C173.171 29.716 172.043 29.436 171.035 28.876C170.027 28.3 169.235 27.5 168.659 26.476C168.083 25.436 167.795 24.236 167.795 22.876C167.795 21.532 168.091 20.34 168.683 19.3C169.275 18.26 170.083 17.46 171.107 16.9C172.131 16.34 173.275 16.06 174.539 16.06C175.803 16.06 176.947 16.34 177.971 16.9C178.995 17.46 179.803 18.26 180.395 19.3C180.987 20.34 181.283 21.532 181.283 22.876C181.283 24.22 180.979 25.412 180.371 26.452C179.763 27.492 178.931 28.3 177.875 28.876C176.835 29.436 175.683 29.716 174.419 29.716ZM174.419 27.34C175.123 27.34 175.779 27.172 176.387 26.836C177.011 26.5 177.515 25.996 177.899 25.324C178.283 24.652 178.475 23.836 178.475 22.876C178.475 21.916 178.291 21.108 177.923 20.452C177.555 19.78 177.067 19.276 176.459 18.94C175.851 18.604 175.195 18.436 174.491 18.436C173.787 18.436 173.131 18.604 172.523 18.94C171.931 19.276 171.459 19.78 171.107 20.452C170.755 21.108 170.579 21.916 170.579 22.876C170.579 24.3 170.939 25.404 171.659 26.188C172.395 26.956 173.315 27.34 174.419 27.34ZM190.66 16.06C191.7 16.06 192.628 16.276 193.444 16.708C194.276 17.14 194.924 17.78 195.388 18.628C195.852 19.476 196.084 20.5 196.084 21.7V29.5H193.372V22.108C193.372 20.924 193.076 20.02 192.484 19.396C191.892 18.756 191.084 18.436 190.06 18.436C189.036 18.436 188.22 18.756 187.612 19.396C187.02 20.02 186.724 20.924 186.724 22.108V29.5H183.988V16.276H186.724V17.788C187.172 17.244 187.74 16.82 188.428 16.516C189.132 16.212 189.876 16.06 190.66 16.06ZM209.725 19.66V21.964H199.861V19.66H209.725ZM213.205 16.324C213.301 14.836 213.869 13.676 214.909 12.844C215.965 12.012 217.309 11.596 218.941 11.596C220.061 11.596 221.029 11.796 221.845 12.196C222.661 12.596 223.277 13.14 223.693 13.828C224.109 14.516 224.317 15.292 224.317 16.156C224.317 17.148 224.053 17.996 223.525 18.7C222.997 19.404 222.365 19.876 221.629 20.116V20.212C222.573 20.5 223.309 21.028 223.837 21.796C224.365 22.548 224.629 23.516 224.629 24.7C224.629 25.644 224.413 26.484 223.981 27.22C223.549 27.956 222.909 28.54 222.061 28.972C221.213 29.388 220.197 29.596 219.013 29.596C217.285 29.596 215.861 29.156 214.741 28.276C213.637 27.38 213.045 26.1 212.965 24.436H215.605C215.669 25.284 215.997 25.98 216.589 26.524C217.181 27.052 217.981 27.316 218.989 27.316C219.965 27.316 220.717 27.052 221.245 26.524C221.773 25.98 222.037 25.284 222.037 24.436C222.037 23.316 221.677 22.524 220.957 22.06C220.253 21.58 219.165 21.34 217.693 21.34H217.069V19.084H217.717C219.013 19.068 219.997 18.852 220.669 18.436C221.357 18.02 221.701 17.364 221.701 16.468C221.701 15.7 221.453 15.092 220.957 14.644C220.461 14.18 219.757 13.948 218.845 13.948C217.949 13.948 217.253 14.18 216.757 14.644C216.261 15.092 215.965 15.652 215.869 16.324H213.205ZM236.911 16.06C236.735 15.324 236.415 14.772 235.951 14.404C235.487 14.036 234.839 13.852 234.007 13.852C232.743 13.852 231.799 14.34 231.175 15.316C230.551 16.276 230.223 17.876 230.191 20.116C230.607 19.412 231.215 18.868 232.015 18.484C232.815 18.1 233.679 17.908 234.607 17.908C235.663 17.908 236.591 18.14 237.391 18.604C238.207 19.052 238.839 19.708 239.286 20.572C239.751 21.436 239.983 22.468 239.983 23.668C239.983 24.788 239.759 25.788 239.311 26.668C238.879 27.548 238.231 28.244 237.367 28.756C236.503 29.252 235.463 29.5 234.247 29.5C232.599 29.5 231.303 29.14 230.359 28.42C229.431 27.684 228.775 26.652 228.391 25.324C228.023 23.996 227.839 22.34 227.839 20.356C227.839 14.5 229.903 11.572 234.031 11.572C235.631 11.572 236.887 12.004 237.799 12.868C238.727 13.732 239.271 14.796 239.431 16.06H236.911ZM234.007 20.212C233.031 20.212 232.199 20.508 231.511 21.1C230.839 21.676 230.503 22.516 230.503 23.62C230.503 24.724 230.815 25.604 231.439 26.26C232.079 26.9 232.967 27.22 234.103 27.22C235.111 27.22 235.903 26.908 236.479 26.284C237.071 25.66 237.367 24.828 237.367 23.788C237.367 22.7 237.079 21.836 236.503 21.196C235.943 20.54 235.111 20.212 234.007 20.212ZM242.901 20.524C242.901 17.756 243.365 15.596 244.293 14.044C245.237 12.476 246.853 11.692 249.141 11.692C251.429 11.692 253.037 12.476 253.965 14.044C254.909 15.596 255.381 17.756 255.381 20.524C255.381 23.324 254.909 25.516 253.965 27.1C253.037 28.668 251.429 29.452 249.141 29.452C246.853 29.452 245.237 28.668 244.293 27.1C243.365 25.516 242.901 23.324 242.901 20.524ZM252.693 20.524C252.693 19.228 252.605 18.132 252.429 17.236C252.269 16.34 251.933 15.612 251.421 15.052C250.909 14.476 250.149 14.188 249.141 14.188C248.133 14.188 247.373 14.476 246.861 15.052C246.349 15.612 246.005 16.34 245.829 17.236C245.669 18.132 245.589 19.228 245.589 20.524C245.589 21.868 245.669 22.996 245.829 23.908C245.989 24.82 246.325 25.556 246.837 26.116C247.365 26.676 248.133 26.956 249.141 26.956C250.149 26.956 250.909 26.676 251.421 26.116C251.949 25.556 252.293 24.82 252.453 23.908C252.613 22.996 252.693 21.868 252.693 20.524Z" fill="black"/>
</svg>
