<svg width="550" height="93" viewBox="0 0 550 93" fill="none" xmlns="http://www.w3.org/2000/svg">
<path d="M0.619141 66.1149C0.619141 34.1011 29.7964 10.1601 61.7103 13.1789C71.0258 14.0601 80.2454 14.6507 88.4144 14.6858C97.6171 14.7253 108.107 14.0711 118.616 13.0767C150.497 10.0604 179.619 34.0336 179.619 66.0139V75.9752C179.619 85.3777 171.134 93 161.719 93C147.206 93 135.802 93 122.51 93C104.339 93 104.61 75.9752 88.4144 75.9752C72.2191 75.9752 73.0715 93 56.8763 93C47.6212 93 30.3544 93 17.4416 93C8.0265 93 0.619141 85.3777 0.619141 75.9752V66.1149Z" fill="#787878"/>
<path d="M15.9726 9.37474C14.0837 6.67813 14.7414 2.96292 17.4416 1.07657C20.1419 -0.809777 23.862 -0.152936 25.7509 2.54367L42.3629 26.2593C44.2517 28.9559 43.594 32.6711 40.8938 34.5575C38.1936 36.4438 34.4734 35.787 32.5845 33.0904L15.9726 9.37474Z" fill="#787878"/>
<path d="M171.925 9.37474C173.814 6.67813 173.156 2.96292 170.456 1.07657C167.755 -0.809777 164.035 -0.152936 162.146 2.54367L145.534 26.2593C143.645 28.9559 144.303 32.6711 147.003 34.5575C149.704 36.4438 153.424 35.787 155.313 33.0904L171.925 9.37474Z" fill="#787878"/>
<path d="M219.211 63.836C216.971 63.836 214.955 63.452 213.163 62.684C211.371 61.884 209.963 60.764 208.939 59.324C207.915 57.884 207.403 56.204 207.403 54.284H213.259C213.387 55.724 213.947 56.908 214.939 57.836C215.963 58.764 217.387 59.228 219.211 59.228C221.099 59.228 222.571 58.78 223.627 57.884C224.683 56.956 225.211 55.772 225.211 54.332C225.211 53.212 224.875 52.3 224.203 51.596C223.563 50.892 222.747 50.348 221.755 49.964C220.795 49.58 219.451 49.164 217.723 48.716C215.547 48.14 213.771 47.564 212.395 46.988C211.051 46.38 209.899 45.452 208.939 44.204C207.979 42.956 207.499 41.292 207.499 39.212C207.499 37.292 207.979 35.612 208.939 34.172C209.899 32.732 211.243 31.628 212.971 30.86C214.699 30.092 216.699 29.708 218.971 29.708C222.203 29.708 224.843 30.524 226.891 32.156C228.971 33.756 230.123 35.964 230.347 38.78H224.299C224.203 37.564 223.627 36.524 222.571 35.66C221.515 34.796 220.123 34.364 218.395 34.364C216.827 34.364 215.547 34.764 214.555 35.564C213.563 36.364 213.067 37.516 213.067 39.02C213.067 40.044 213.371 40.892 213.979 41.564C214.619 42.204 215.419 42.716 216.379 43.1C217.339 43.484 218.651 43.9 220.315 44.348C222.523 44.956 224.315 45.564 225.691 46.172C227.099 46.78 228.283 47.724 229.243 49.004C230.235 50.252 230.731 51.932 230.731 54.044C230.731 55.74 230.267 57.34 229.339 58.844C228.443 60.348 227.115 61.564 225.355 62.492C223.627 63.388 221.579 63.836 219.211 63.836Z" fill="#787878"/>
<path d="M247.652 50.3L259.844 63.5H252.452L242.66 52.124V63.5H237.188V27.98H242.66V48.62L252.26 37.052H259.844L247.652 50.3Z" fill="#787878"/>
<path d="M287.574 37.052L271.35 75.932H265.686L271.062 63.068L260.646 37.052H266.742L274.182 57.212L281.91 37.052H287.574Z" fill="#787878"/>
<path d="M320.456 30.14L307.928 63.5H301.592L289.016 30.14H294.872L304.76 57.884L314.696 30.14H320.456Z" fill="#787878"/>
<path d="M327.816 33.548C326.824 33.548 325.992 33.212 325.32 32.54C324.648 31.868 324.312 31.036 324.312 30.044C324.312 29.052 324.648 28.22 325.32 27.548C325.992 26.876 326.824 26.54 327.816 26.54C328.776 26.54 329.592 26.876 330.264 27.548C330.936 28.22 331.272 29.052 331.272 30.044C331.272 31.036 330.936 31.868 330.264 32.54C329.592 33.212 328.776 33.548 327.816 33.548ZM330.504 37.052V63.5H325.032V37.052H330.504Z" fill="#787878"/>
<path d="M347.288 63.932C345.208 63.932 343.336 63.564 341.672 62.828C340.04 62.06 338.744 61.036 337.784 59.756C336.824 58.444 336.312 56.988 336.248 55.388H341.912C342.008 56.508 342.536 57.452 343.496 58.22C344.488 58.956 345.72 59.324 347.192 59.324C348.728 59.324 349.912 59.036 350.744 58.46C351.608 57.852 352.04 57.084 352.04 56.156C352.04 55.164 351.56 54.428 350.6 53.948C349.672 53.468 348.184 52.94 346.136 52.364C344.152 51.82 342.536 51.292 341.288 50.78C340.04 50.268 338.952 49.484 338.024 48.428C337.128 47.372 336.68 45.98 336.68 44.252C336.68 42.844 337.096 41.564 337.928 40.412C338.76 39.228 339.944 38.3 341.48 37.628C343.048 36.956 344.84 36.62 346.856 36.62C349.864 36.62 352.28 37.388 354.104 38.924C355.96 40.428 356.952 42.492 357.08 45.116H351.608C351.512 43.932 351.032 42.988 350.168 42.284C349.304 41.58 348.136 41.228 346.664 41.228C345.224 41.228 344.12 41.5 343.352 42.044C342.584 42.588 342.2 43.308 342.2 44.204C342.2 44.908 342.456 45.5 342.968 45.98C343.48 46.46 344.104 46.844 344.84 47.132C345.576 47.388 346.664 47.724 348.104 48.14C350.024 48.652 351.592 49.18 352.808 49.724C354.056 50.236 355.128 51.004 356.024 52.028C356.92 53.052 357.384 54.412 357.416 56.108C357.416 57.612 357 58.956 356.168 60.14C355.336 61.324 354.152 62.252 352.616 62.924C351.112 63.596 349.336 63.932 347.288 63.932Z" fill="#787878"/>
<path d="M366.113 33.548C365.121 33.548 364.289 33.212 363.617 32.54C362.945 31.868 362.609 31.036 362.609 30.044C362.609 29.052 362.945 28.22 363.617 27.548C364.289 26.876 365.121 26.54 366.113 26.54C367.073 26.54 367.889 26.876 368.561 27.548C369.233 28.22 369.569 29.052 369.569 30.044C369.569 31.036 369.233 31.868 368.561 32.54C367.889 33.212 367.073 33.548 366.113 33.548ZM368.801 37.052V63.5H363.329V37.052H368.801Z" fill="#787878"/>
<path d="M387.457 63.932C384.961 63.932 382.705 63.372 380.689 62.252C378.673 61.1 377.089 59.5 375.937 57.452C374.785 55.372 374.209 52.972 374.209 50.252C374.209 47.564 374.801 45.18 375.985 43.1C377.169 41.02 378.785 39.42 380.833 38.3C382.881 37.18 385.169 36.62 387.697 36.62C390.225 36.62 392.513 37.18 394.561 38.3C396.609 39.42 398.225 41.02 399.409 43.1C400.593 45.18 401.185 47.564 401.185 50.252C401.185 52.94 400.577 55.324 399.361 57.404C398.145 59.484 396.481 61.1 394.369 62.252C392.289 63.372 389.985 63.932 387.457 63.932ZM387.457 59.18C388.865 59.18 390.177 58.844 391.393 58.172C392.641 57.5 393.649 56.492 394.417 55.148C395.185 53.804 395.569 52.172 395.569 50.252C395.569 48.332 395.201 46.716 394.465 45.404C393.729 44.06 392.753 43.052 391.537 42.38C390.321 41.708 389.009 41.372 387.601 41.372C386.193 41.372 384.881 41.708 383.665 42.38C382.481 43.052 381.537 44.06 380.833 45.404C380.129 46.716 379.777 48.332 379.777 50.252C379.777 53.1 380.497 55.308 381.937 56.876C383.409 58.412 385.249 59.18 387.457 59.18Z" fill="#787878"/>
<path d="M419.938 36.62C422.018 36.62 423.874 37.052 425.506 37.916C427.17 38.78 428.466 40.06 429.394 41.756C430.322 43.452 430.786 45.5 430.786 47.9V63.5H425.362V48.716C425.362 46.348 424.77 44.54 423.586 43.292C422.402 42.012 420.786 41.372 418.738 41.372C416.69 41.372 415.058 42.012 413.842 43.292C412.658 44.54 412.066 46.348 412.066 48.716V63.5H406.594V37.052H412.066V40.076C412.962 38.988 414.098 38.14 415.474 37.532C416.882 36.924 418.37 36.62 419.938 36.62Z" fill="#787878"/>
<path d="M458.07 43.82V48.428H438.342V43.82H458.07Z" fill="#787878"/>
<path d="M465.028 37.148C465.22 34.172 466.356 31.852 468.436 30.188C470.548 28.524 473.236 27.692 476.5 27.692C478.74 27.692 480.676 28.092 482.308 28.892C483.94 29.692 485.172 30.78 486.004 32.156C486.836 33.532 487.252 35.084 487.252 36.812C487.252 38.796 486.724 40.492 485.668 41.9C484.612 43.308 483.348 44.252 481.876 44.732V44.924C483.764 45.5 485.236 46.556 486.292 48.092C487.348 49.596 487.876 51.532 487.876 53.9C487.876 55.788 487.444 57.468 486.58 58.94C485.716 60.412 484.436 61.58 482.74 62.444C481.044 63.276 479.012 63.692 476.644 63.692C473.188 63.692 470.34 62.812 468.1 61.052C465.892 59.26 464.708 56.7 464.548 53.372H469.828C469.956 55.068 470.612 56.46 471.796 57.548C472.98 58.604 474.58 59.132 476.596 59.132C478.548 59.132 480.052 58.604 481.108 57.548C482.164 56.46 482.692 55.068 482.692 53.372C482.692 51.132 481.972 49.548 480.532 48.62C479.124 47.66 476.948 47.18 474.004 47.18H472.756V42.668H474.052C476.644 42.636 478.612 42.204 479.956 41.372C481.332 40.54 482.02 39.228 482.02 37.436C482.02 35.9 481.524 34.684 480.532 33.788C479.54 32.86 478.132 32.396 476.308 32.396C474.516 32.396 473.124 32.86 472.132 33.788C471.14 34.684 470.548 35.804 470.356 37.148H465.028Z" fill="#787878"/>
<path d="M512.44 36.62C512.088 35.148 511.448 34.044 510.52 33.308C509.592 32.572 508.296 32.204 506.632 32.204C504.104 32.204 502.216 33.18 500.968 35.132C499.72 37.052 499.064 40.252 499 44.732C499.832 43.324 501.048 42.236 502.648 41.468C504.248 40.7 505.976 40.316 507.832 40.316C509.944 40.316 511.8 40.78 513.4 41.708C515.032 42.604 516.296 43.916 517.192 45.644C518.12 47.372 518.584 49.436 518.584 51.836C518.584 54.076 518.136 56.076 517.24 57.836C516.376 59.596 515.08 60.988 513.352 62.012C511.624 63.004 509.544 63.5 507.112 63.5C503.816 63.5 501.224 62.78 499.336 61.34C497.48 59.868 496.168 57.804 495.4 55.148C494.664 52.492 494.296 49.18 494.296 45.212C494.296 33.5 498.424 27.644 506.68 27.644C509.88 27.644 512.392 28.508 514.216 30.236C516.072 31.964 517.16 34.092 517.48 36.62H512.44ZM506.632 44.924C504.68 44.924 503.016 45.516 501.64 46.7C500.296 47.852 499.624 49.532 499.624 51.74C499.624 53.948 500.248 55.708 501.496 57.02C502.776 58.3 504.552 58.94 506.824 58.94C508.84 58.94 510.424 58.316 511.576 57.068C512.76 55.82 513.352 54.156 513.352 52.076C513.352 49.9 512.776 48.172 511.624 46.892C510.504 45.58 508.84 44.924 506.632 44.924Z" fill="#787878"/>
<path d="M524.421 45.548C524.421 40.012 525.349 35.692 527.205 32.588C529.093 29.452 532.325 27.884 536.901 27.884C541.477 27.884 544.693 29.452 546.549 32.588C548.437 35.692 549.381 40.012 549.381 45.548C549.381 51.148 548.437 55.532 546.549 58.7C544.693 61.836 541.477 63.404 536.901 63.404C532.325 63.404 529.093 61.836 527.205 58.7C525.349 55.532 524.421 51.148 524.421 45.548ZM544.005 45.548C544.005 42.956 543.829 40.764 543.477 38.972C543.157 37.18 542.485 35.724 541.461 34.604C540.437 33.452 538.917 32.876 536.901 32.876C534.885 32.876 533.365 33.452 532.341 34.604C531.317 35.724 530.629 37.18 530.277 38.972C529.957 40.764 529.797 42.956 529.797 45.548C529.797 48.236 529.957 50.492 530.277 52.316C530.597 54.14 531.269 55.612 532.293 56.732C533.349 57.852 534.885 58.412 536.901 58.412C538.917 58.412 540.437 57.852 541.461 56.732C542.517 55.612 543.205 54.14 543.525 52.316C543.845 50.492 544.005 48.236 544.005 45.548Z" fill="#787878"/>
</svg>
