<svg width="172" height="25" viewBox="0 0 172 25" fill="none" xmlns="http://www.w3.org/2000/svg">
<path d="M6.296 18.668C5.176 18.668 4.168 18.476 3.272 18.092C2.376 17.692 1.672 17.132 1.16 16.412C0.648 15.692 0.392 14.852 0.392 13.892H3.32C3.384 14.612 3.664 15.204 4.16 15.668C4.672 16.132 5.384 16.364 6.296 16.364C7.24 16.364 7.976 16.14 8.504 15.692C9.032 15.228 9.296 14.636 9.296 13.916C9.296 13.356 9.128 12.9 8.792 12.548C8.472 12.196 8.064 11.924 7.568 11.732C7.088 11.54 6.416 11.332 5.552 11.108C4.464 10.82 3.576 10.532 2.888 10.244C2.216 9.94 1.64 9.476 1.16 8.852C0.68 8.228 0.44 7.396 0.44 6.356C0.44 5.396 0.68 4.556 1.16 3.836C1.64 3.116 2.312 2.564 3.176 2.18C4.04 1.796 5.04 1.604 6.176 1.604C7.792 1.604 9.112 2.012 10.136 2.828C11.176 3.628 11.752 4.732 11.864 6.14H8.84C8.792 5.532 8.504 5.012 7.976 4.58C7.448 4.148 6.752 3.932 5.888 3.932C5.104 3.932 4.464 4.132 3.968 4.532C3.472 4.932 3.224 5.508 3.224 6.26C3.224 6.772 3.376 7.196 3.68 7.532C4 7.852 4.4 8.108 4.88 8.3C5.36 8.492 6.016 8.7 6.848 8.924C7.952 9.228 8.848 9.532 9.536 9.836C10.24 10.14 10.832 10.612 11.312 11.252C11.808 11.876 12.056 12.716 12.056 13.772C12.056 14.62 11.824 15.42 11.36 16.172C10.912 16.924 10.248 17.532 9.368 17.996C8.504 18.444 7.48 18.668 6.296 18.668ZM20.5164 11.9L26.6124 18.5H22.9164L18.0204 12.812V18.5H15.2844V0.74H18.0204V11.06L22.8204 5.276H26.6124L20.5164 11.9ZM40.4774 5.276L32.3654 24.716H29.5334L32.2214 18.284L27.0134 5.276H30.0614L33.7814 15.356L37.6454 5.276H40.4774ZM56.9182 1.82L50.6542 18.5H47.4862L41.1982 1.82H44.1262L49.0702 15.692L54.0382 1.82H56.9182ZM60.5983 3.524C60.1023 3.524 59.6863 3.356 59.3503 3.02C59.0143 2.684 58.8463 2.268 58.8463 1.772C58.8463 1.276 59.0143 0.859999 59.3503 0.524C59.6863 0.187999 60.1023 0.019999 60.5983 0.019999C61.0783 0.019999 61.4863 0.187999 61.8223 0.524C62.1583 0.859999 62.3263 1.276 62.3263 1.772C62.3263 2.268 62.1583 2.684 61.8223 3.02C61.4863 3.356 61.0783 3.524 60.5983 3.524ZM61.9423 5.276V18.5H59.2063V5.276H61.9423ZM70.3344 18.716C69.2944 18.716 68.3584 18.532 67.5264 18.164C66.7104 17.78 66.0624 17.268 65.5824 16.628C65.1024 15.972 64.8464 15.244 64.8144 14.444H67.6464C67.6944 15.004 67.9584 15.476 68.4384 15.86C68.9344 16.228 69.5504 16.412 70.2864 16.412C71.0544 16.412 71.6464 16.268 72.0624 15.98C72.4944 15.676 72.7104 15.292 72.7104 14.828C72.7104 14.332 72.4704 13.964 71.9904 13.724C71.5264 13.484 70.7824 13.22 69.7584 12.932C68.7664 12.66 67.9584 12.396 67.3344 12.14C66.7104 11.884 66.1664 11.492 65.7024 10.964C65.2544 10.436 65.0304 9.74 65.0304 8.876C65.0304 8.172 65.2384 7.532 65.6544 6.956C66.0704 6.364 66.6624 5.9 67.4304 5.564C68.2144 5.228 69.1104 5.06 70.1184 5.06C71.6224 5.06 72.8304 5.444 73.7424 6.212C74.6704 6.964 75.1664 7.996 75.2304 9.308H72.4944C72.4464 8.716 72.2064 8.244 71.7744 7.892C71.3424 7.54 70.7584 7.364 70.0224 7.364C69.3024 7.364 68.7504 7.5 68.3664 7.772C67.9824 8.044 67.7904 8.404 67.7904 8.852C67.7904 9.204 67.9184 9.5 68.1744 9.74C68.4304 9.98 68.7424 10.172 69.1104 10.316C69.4784 10.444 70.0224 10.612 70.7424 10.82C71.7024 11.076 72.4864 11.34 73.0944 11.612C73.7184 11.868 74.2544 12.252 74.7024 12.764C75.1504 13.276 75.3824 13.956 75.3984 14.804C75.3984 15.556 75.1904 16.228 74.7744 16.82C74.3584 17.412 73.7664 17.876 72.9984 18.212C72.2464 18.548 71.3584 18.716 70.3344 18.716ZM79.7467 3.524C79.2507 3.524 78.8347 3.356 78.4987 3.02C78.1627 2.684 77.9947 2.268 77.9947 1.772C77.9947 1.276 78.1627 0.859999 78.4987 0.524C78.8347 0.187999 79.2507 0.019999 79.7467 0.019999C80.2267 0.019999 80.6347 0.187999 80.9707 0.524C81.3067 0.859999 81.4747 1.276 81.4747 1.772C81.4747 2.268 81.3067 2.684 80.9707 3.02C80.6347 3.356 80.2267 3.524 79.7467 3.524ZM81.0907 5.276V18.5H78.3547V5.276H81.0907ZM90.4188 18.716C89.1708 18.716 88.0428 18.436 87.0348 17.876C86.0268 17.3 85.2348 16.5 84.6588 15.476C84.0828 14.436 83.7948 13.236 83.7948 11.876C83.7948 10.532 84.0908 9.34 84.6828 8.3C85.2748 7.26 86.0828 6.46 87.1068 5.9C88.1308 5.34 89.2748 5.06 90.5388 5.06C91.8028 5.06 92.9468 5.34 93.9708 5.9C94.9948 6.46 95.8028 7.26 96.3948 8.3C96.9868 9.34 97.2828 10.532 97.2828 11.876C97.2828 13.22 96.9788 14.412 96.3708 15.452C95.7628 16.492 94.9308 17.3 93.8748 17.876C92.8348 18.436 91.6828 18.716 90.4188 18.716ZM90.4188 16.34C91.1228 16.34 91.7788 16.172 92.3868 15.836C93.0108 15.5 93.5148 14.996 93.8988 14.324C94.2828 13.652 94.4748 12.836 94.4748 11.876C94.4748 10.916 94.2908 10.108 93.9228 9.452C93.5548 8.78 93.0668 8.276 92.4588 7.94C91.8508 7.604 91.1948 7.436 90.4908 7.436C89.7868 7.436 89.1308 7.604 88.5228 7.94C87.9308 8.276 87.4588 8.78 87.1068 9.452C86.7548 10.108 86.5788 10.916 86.5788 11.876C86.5788 13.3 86.9388 14.404 87.6588 15.188C88.3948 15.956 89.3148 16.34 90.4188 16.34ZM106.66 5.06C107.7 5.06 108.628 5.276 109.444 5.708C110.276 6.14 110.924 6.78 111.388 7.628C111.852 8.476 112.084 9.5 112.084 10.7V18.5H109.372V11.108C109.372 9.924 109.076 9.02 108.484 8.396C107.892 7.756 107.084 7.436 106.06 7.436C105.036 7.436 104.22 7.756 103.612 8.396C103.02 9.02 102.724 9.924 102.724 11.108V18.5H99.9875V5.276H102.724V6.788C103.172 6.244 103.74 5.82 104.428 5.516C105.132 5.212 105.876 5.06 106.66 5.06ZM125.725 8.66V10.964H115.861V8.66H125.725ZM129.205 5.324C129.301 3.836 129.869 2.676 130.909 1.844C131.965 1.012 133.309 0.595999 134.941 0.595999C136.061 0.595999 137.029 0.795999 137.845 1.196C138.661 1.596 139.277 2.14 139.693 2.828C140.109 3.516 140.317 4.292 140.317 5.156C140.317 6.148 140.053 6.996 139.525 7.7C138.997 8.404 138.365 8.876 137.629 9.116V9.212C138.573 9.5 139.309 10.028 139.837 10.796C140.365 11.548 140.629 12.516 140.629 13.7C140.629 14.644 140.413 15.484 139.981 16.22C139.549 16.956 138.909 17.54 138.061 17.972C137.213 18.388 136.197 18.596 135.013 18.596C133.285 18.596 131.861 18.156 130.741 17.276C129.637 16.38 129.045 15.1 128.965 13.436H131.605C131.669 14.284 131.997 14.98 132.589 15.524C133.181 16.052 133.981 16.316 134.989 16.316C135.965 16.316 136.717 16.052 137.245 15.524C137.773 14.98 138.037 14.284 138.037 13.436C138.037 12.316 137.677 11.524 136.957 11.06C136.253 10.58 135.165 10.34 133.693 10.34H133.069V8.084H133.717C135.013 8.068 135.997 7.852 136.669 7.436C137.357 7.02 137.701 6.364 137.701 5.468C137.701 4.7 137.453 4.092 136.957 3.644C136.461 3.18 135.757 2.948 134.845 2.948C133.949 2.948 133.253 3.18 132.757 3.644C132.261 4.092 131.965 4.652 131.869 5.324H129.205ZM152.911 5.06C152.735 4.324 152.415 3.772 151.951 3.404C151.487 3.036 150.839 2.852 150.007 2.852C148.743 2.852 147.799 3.34 147.175 4.316C146.551 5.276 146.223 6.876 146.191 9.116C146.607 8.412 147.215 7.868 148.015 7.484C148.815 7.1 149.679 6.908 150.607 6.908C151.663 6.908 152.591 7.14 153.391 7.604C154.207 8.052 154.839 8.708 155.286 9.572C155.751 10.436 155.983 11.468 155.983 12.668C155.983 13.788 155.759 14.788 155.311 15.668C154.879 16.548 154.231 17.244 153.367 17.756C152.503 18.252 151.463 18.5 150.247 18.5C148.599 18.5 147.303 18.14 146.359 17.42C145.431 16.684 144.775 15.652 144.391 14.324C144.023 12.996 143.839 11.34 143.839 9.356C143.839 3.5 145.903 0.571999 150.031 0.571999C151.631 0.571999 152.887 1.004 153.799 1.868C154.727 2.732 155.271 3.796 155.431 5.06H152.911ZM150.007 9.212C149.031 9.212 148.199 9.508 147.511 10.1C146.839 10.676 146.503 11.516 146.503 12.62C146.503 13.724 146.815 14.604 147.439 15.26C148.079 15.9 148.967 16.22 150.103 16.22C151.111 16.22 151.903 15.908 152.479 15.284C153.071 14.66 153.367 13.828 153.367 12.788C153.367 11.7 153.079 10.836 152.503 10.196C151.943 9.54 151.111 9.212 150.007 9.212ZM158.901 9.524C158.901 6.756 159.365 4.596 160.293 3.044C161.237 1.476 162.853 0.691999 165.141 0.691999C167.429 0.691999 169.037 1.476 169.965 3.044C170.909 4.596 171.381 6.756 171.381 9.524C171.381 12.324 170.909 14.516 169.965 16.1C169.037 17.668 167.429 18.452 165.141 18.452C162.853 18.452 161.237 17.668 160.293 16.1C159.365 14.516 158.901 12.324 158.901 9.524ZM168.693 9.524C168.693 8.228 168.605 7.132 168.429 6.236C168.269 5.34 167.933 4.612 167.421 4.052C166.909 3.476 166.149 3.188 165.141 3.188C164.133 3.188 163.373 3.476 162.861 4.052C162.349 4.612 162.005 5.34 161.829 6.236C161.669 7.132 161.589 8.228 161.589 9.524C161.589 10.868 161.669 11.996 161.829 12.908C161.989 13.82 162.325 14.556 162.837 15.116C163.365 15.676 164.133 15.956 165.141 15.956C166.149 15.956 166.909 15.676 167.421 15.116C167.949 14.556 168.293 13.82 168.453 12.908C168.613 11.996 168.693 10.868 168.693 9.524Z" fill="black"/>
</svg>
