<svg width="75" height="40" viewBox="0 0 75 40" fill="none" xmlns="http://www.w3.org/2000/svg">
<path d="M0 28.2256C0 14.8004 12.2251 4.76067 25.5968 6.02665C29.5 6.39619 33.363 6.64385 36.7857 6.65856C40.6416 6.67513 45.0368 6.40077 49.4402 5.98379C62.7979 4.71886 75 14.7722 75 28.1833V32.3606C75 36.3036 71.4449 39.5 67.5 39.5C61.4192 39.5 56.6411 39.5 51.0714 39.5C43.4582 39.5 43.5714 32.3606 36.7857 32.3606C30 32.3606 30.3571 39.5 23.5714 39.5C19.6936 39.5 12.4589 39.5 7.04853 39.5C3.10364 39.5 0 36.3036 0 32.3606V28.2256Z" fill="black"/>
<path d="M6.43301 4.43134C5.64158 3.30051 5.91716 1.74251 7.04853 0.951465C8.17991 0.160416 9.73865 0.435866 10.5301 1.5667L17.4904 11.512C18.2818 12.6428 18.0062 14.2008 16.8749 14.9918C15.7435 15.7829 14.1847 15.5074 13.3933 14.3766L6.43301 4.43134Z" fill="black"/>
<path d="M71.776 4.43134C72.5675 3.30051 72.2919 1.74251 71.1605 0.951465C70.0291 0.160416 68.4704 0.435866 67.679 1.5667L60.7187 11.512C59.9272 12.6428 60.2028 14.2008 61.3342 14.9918C62.4656 15.7829 64.0243 15.5074 64.8157 14.3766L71.776 4.43134Z" fill="black"/>
</svg>
