<?xml version="1.0" standalone="no"?>
<!DOCTYPE svg PUBLIC "-//W3C//DTD SVG 20010904//EN"
 "http://www.w3.org/TR/2001/REC-SVG-20010904/DTD/svg10.dtd">
<svg version="1.0" xmlns="http://www.w3.org/2000/svg"
 width="300.000000pt" height="300.000000pt" viewBox="0 0 300.000000 300.000000"
 preserveAspectRatio="xMidYMid meet">
<metadata>
Created by potrace 1.14, written by Peter Selinger 2001-2017
</metadata>
<g transform="translate(0.000000,300.000000) scale(0.100000,-0.100000)"
fill="#000000" stroke="none">
<path d="M300 2273 c-8 -3 -25 -18 -38 -32 -40 -45 -27 -89 66 -221 72 -100
80 -115 64 -124 -25 -13 -121 -95 -159 -136 -90 -96 -182 -267 -214 -400 -9
-37 -14 -119 -14 -245 0 -187 0 -191 27 -241 32 -61 91 -113 156 -136 41 -15
94 -17 423 -18 469 0 445 -5 578 127 53 52 112 106 132 118 82 53 219 52 306
-1 17 -11 70 -57 117 -102 52 -49 109 -93 144 -109 l57 -28 405 -2 c390 -2
407 -1 460 19 74 28 151 106 174 175 19 57 22 289 5 397 -27 169 -114 335
-243 468 l-66 67 95 136 c52 75 99 145 105 155 34 63 -30 149 -101 137 -45 -7
-57 -18 -110 -95 -29 -42 -55 -79 -58 -82 -5 -4 -66 -92 -92 -132 -3 -5 -32 1
-65 15 -168 71 -334 94 -519 74 -243 -27 -628 -27 -885 0 -142 15 -276 3 -395
-36 -33 -10 -63 -17 -67 -14 -4 2 -47 59 -94 126 -48 67 -93 127 -101 132 -17
12 -70 17 -93 8z"/>
</g>
</svg>
